SplineFontDB: 3.2
FontName: Iohannes
FullName: Iohannes
FamilyName: Iohannes
Weight: Regular

StartChar: DiamondOriscus
Encoding: 128 63091 0
Width: 148
Flags: HW
LayerCount: 2
Fore
SplineSet
0 60 m 1
 0 60 0 60 0 61 c 2
 88 209 l 1
 79 182 l 1
 78 170 l 1
 78 170 l 1
 78 162 l 2
 79.3333333333 159.333333333 80.3333333333 156.333333333 81 153 c 1
 81 153 l 1
 84 149 l 2
 85.3333333333 147 87 144.666666667 89 142 c 0
 92.3333333333 138.666666667 98 135.333333333 106 132 c 256
 114 128.666666667 122.333333333 125.666666667 131 123 c 0
 139 120.333333333 147.333333333 117.333333333 156 114 c 0
 164.666666667 110 170.666666667 106.333333333 174 103 c 0
 182.666666667 93.6666666667 186.666666667 84 186 74 c 1
 186 74 186 74 101 -69 c 1
 101 -69 l 1
 101 -69 l 1
 108 -45 l 1
 110 -32 l 1
 110 -32 l 1
 110 -24 l 2
 108.666666667 -21.3333333333 107.666666667 -18.3333333333 107 -15 c 1
 107 -15 l 1
 104 -11 l 2
 102.666666667 -9 101 -6.66666666667 99 -4 c 0
 95.6666666667 -0.666666666667 90 2.66666666667 82 6 c 256
 74 9.33333333333 65.6666666667 12.3333333333 57 15 c 0
 49 17.6666666667 40.6666666667 20.6666666667 32 24 c 256
 23.3333333333 27.3333333333 17 30 13 32 c 0
 3.66666666667 37.3333333333 -0.666666666667 46.6666666667 0 60 c 2
 0 61 l 1
 0 60 l 1
EndSplineSet
EndChar

StartChar: ReverseAcuasta
Encoding: 129 63100 1
Width: 136
Flags: HW
LayerCount: 2
Fore
SplineSet
76 267 m 1
 89.3333333333 267 103 244 117 198 c 0
 129.666666667 155.333333333 136 113 136 71 c 0
 136 17 124.666666667 -16 102 -28 c 0
 85.3333333333 -36.6666666667 64 -41 38 -41 c 0
 13.3333333333 -41 -11 -35.3333333333 -35 -24 c 0
 -39.6666666667 -22.6666666667 -42 -21.3333333333 -42 -20 c 2
 -42 136 l 1
 -26 120.666666667 -12 112.333333333 0 111 c 0
 11.3333333333 108.333333333 22 107 32 107 c 2
 36 107 l 2
 61.3333333333 107 83.3333333333 115.333333333 102 132 c 0
 107.333333333 137.333333333 110 143.666666667 110 151 c 0
 110 177.666666667 101 210 83 248 c 0
 79 253.333333333 76 257 74 259 c 2
 74 265 l 1
 76 267 l 1
EndSplineSet
EndChar

StartChar: Acuasta
Encoding: 130 63099 2
Width: 584
Flags: HW
LayerCount: 2
Fore
SplineSet
41 -56 m 1024
132 -81 m 0
 131.333333333 -85 128 -97.3333333333 122 -118 c 1
 122 -118 l 1
 126 -124 130 -123.333333333 134 -116 c 0
 155.333333333 -66.6666666667 166 -11.3333333333 166 50 c 0
 166 80 162.333333333 104.666666667 155 124 c 0
 145 148 116 160.666666667 68 162 c 0
 54.6666666667 162 41.3333333333 160 28 156 c 0
 1.33333333333 148.666666667 -12 143.666666667 -12 141 c 2
 -12 -28 l 1
 -10 -27 l 1
 7.33333333333 -9 31.3333333333 0 62 0 c 2
 64 0 l 1
 112.666666667 -8 135.333333333 -35 132 -81 c 0
EndSplineSet
EndChar

StartChar: AcuastaThird
Encoding: 131 63101 3
Width: 163
Flags: HW
LayerCount: 2
Fore
SplineSet
58 -264 m 1
 55.3333333333 -266 53.3333333333 -265.333333333 52 -262 c 2
 52 -256 l 1
 55 -251 l 1
 116.333333333 -156.333333333 139.333333333 -87.3333333333 124 -44 c 0
 114.666666667 -17.3333333333 93 -5.33333333333 59 -8 c 1
 63 -8 l 1
 63 -8 l 1
 32.3333333333 -8 8.33333333333 -17 -9 -35 c 1
 -11 -36 l 1
 -12 136 l 2
 -12 139.333333333 1.33333333333 144.333333333 28 151 c 0
 41.3333333333 155 54.6666666667 157 68 157 c 0
 110 157 139 144.333333333 155 119 c 0
 161 109.666666667 164 88 164 54 c 0
 165.333333333 -76.6666666667 132.333333333 -180 65 -256 c 1
 65 -256 l 1
 65 -256 l 1
 58 -264 l 1
96 -264 m 1024
EndSplineSet
EndChar

StartChar: AcuastaFourth
Encoding: 132 63104 4
Width: 30
Flags: HW
LayerCount: 2
Fore
SplineSet
-13 -45 m 1
 3.66666666667 -24.3333333333 26.3333333333 -14.3333333333 55 -15 c 1
 55 -15 l 1
 74.3333333333 -14.3333333333 90.3333333333 -20 103 -32 c 0
 113.666666667 -42.6666666667 119.333333333 -62 120 -90 c 0
 120.666666667 -111.333333333 111 -149.333333333 91 -204 c 0
 62.3333333333 -280.666666667 27.3333333333 -344.666666667 -14 -396 c 0
 -19.3333333333 -405.333333333 -17.6666666667 -409 -9 -407 c 1
 106.333333333 -284.333333333 164 -126 164 68 c 0
 164 89.3333333333 161 106.333333333 155 119 c 0
 143 144.333333333 114 157 68 157 c 0
 54.6666666667 157 41.3333333333 155 28 151 c 0
 1.33333333333 144.333333333 -12 139.333333333 -12 136 c 2
 -13 -45 l 1
 -13 -45 l 1
 -13 -45 l 1
EndSplineSet
EndChar

StartChar: OriscusSecond
Encoding: 133 63105 5
Width: 133
Flags: HW
LayerCount: 2
Fore
SplineSet
-44 195 m 1
 -43.3333333333 159.666666667 -27.3333333333 142 4 142 c 0
 12 142 22.6666666667 147 36 157 c 0
 50.6666666667 166.333333333 64 171 76 171 c 2
 80 171 l 2
 105.333333333 171 122.666666667 147 132 99 c 0
 133.333333333 90.3333333333 134 75.3333333333 134 54 c 0
 134 -20.6666666667 122 -87.3333333333 98 -146 c 0
 94.6666666667 -152.666666667 90.3333333333 -155.333333333 85 -154 c 1
 85 -154 l 1
 83 -141 l 1
 85.6666666667 -136.333333333 88.6666666667 -128 92 -116 c 0
 102.666666667 -82.6666666667 108 -56.6666666667 108 -38 c 0
 108 -6 97.3333333333 10 76 10 c 0
 66.6666666667 10 52 -0.333333333333 32 -21 c 0
 25.3333333333 -27 12.6666666667 -30 -6 -30 c 2
 -8 -30 l 2
 -22 -30 -31.3333333333 -22 -36 -6 c 0
 -41.3333333333 12 -44 21.3333333333 -44 22 c 2
 -44 195 l 1
 -44 195 l 1
EndSplineSet
EndChar

StartChar: OriscusThird
Encoding: 134 63106 6
Width: 133
Flags: HW
LayerCount: 2
Fore
SplineSet
26 -315 m 1
 30 -315 34 -312 38 -306 c 0
 98.6666666667 -224 130.666666667 -99.3333333333 134 68 c 0
 134 89.3333333333 133.333333333 104.666666667 132 114 c 0
 122.666666667 162 105.333333333 186 80 186 c 2
 76 186 l 2
 66.6666666667 186 53.3333333333 181 36 171 c 0
 16.6666666667 161.666666667 6 157 4 157 c 0
 -28 157 -44 174.666666667 -44 210 c 1
 -44 210 l 1
 -44 37 l 2
 -44 36.3333333333 -41.3333333333 26.6666666667 -36 8 c 0
 -31.3333333333 -8 -22 -16 -8 -16 c 2
 -6 -16 l 2
 11.3333333333 -16 24 -12.6666666667 32 -6 c 0
 56 14.6666666667 70.6666666667 25 76 25 c 0
 90.6666666667 25 99 9 101 -23 c 0
 105.666666667 -110.333333333 80 -203.333333333 24 -302 c 1
 26 -315 l 1
74 -207 m 1024
EndSplineSet
EndChar

StartChar: OriscusFourth
Encoding: 135 63107 7
Width: 133
Flags: HW
LayerCount: 2
Fore
SplineSet
-40 -486 m 1
 -51.3333333333 -490 -53.3333333333 -484 -46 -468 c 1
 -46 -468 l 1
 -4.66666666667 -411.333333333 32 -336.333333333 64 -243 c 0
 81.3333333333 -191.666666667 93 -141 99 -91 c 0
 108.333333333 -14.3333333333 100.666666667 29.6666666667 76 41 c 0
 72 42.3333333333 57.3333333333 31.6666666667 32 9 c 0
 24 3 11.3333333333 0 -6 0 c 2
 -8 0 l 2
 -22 0 -31.3333333333 8 -36 24 c 0
 -41.3333333333 42 -44 51.6666666667 -44 53 c 2
 -44 225 l 1
 -44 225 l 1
 -44 190.333333333 -28 173 4 173 c 0
 6 173 16.6666666667 177.666666667 36 187 c 0
 53.3333333333 196.333333333 66.6666666667 201 76 201 c 2
 80 201 l 2
 105.333333333 201 122.666666667 177 132 129 c 0
 133.333333333 120.333333333 134 105.333333333 134 84 c 0
 130 -152.666666667 72.3333333333 -342.333333333 -39 -485 c 1
 -39 -485 l 1
 -40 -486 l 1
EndSplineSet
EndChar

StartChar: FlatPar
Encoding: 136 63112 8
Width: 0
Flags: HW
LayerCount: 2
Fore
SplineSet
-125 222 m 1
 -113 222 l 1
 -112 219 l 1
 -104 38 l 1
 -85.3333333333 12 -59 -1 -25 -1 c 1
 -25 2 l 1
 -30.3333333333 24.6666666667 -38.3333333333 39.6666666667 -49 47 c 0
 -58.3333333333 55 -70 62 -84 68 c 1
 -87.3333333333 83.3333333333 -89 97 -89 109 c 0
 -88.3333333333 118.333333333 -86.6666666667 123 -84 123 c 2
 -81 123 l 2
 -72.3333333333 123 -55 113 -29 93 c 0
 -20.3333333333 85 -16 67 -16 39 c 2
 -16 35 l 2
 -17.3333333333 -13 -20.6666666667 -37 -26 -37 c 2
 -31 -38 l 1
 -47 -38 l 2
 -75 -38 -99.3333333333 -26.3333333333 -120 -3 c 0
 -124 2.33333333333 -126 9 -126 17 c 2
 -126 219 l 1
 -125 222 l 1
-15 256 m 1
 -1 246.666666667 11 231.333333333 21 210 c 0
 30.3333333333 188.666666667 37 166.666666667 41 144 c 0
 45.6666666667 112.666666667 47.3333333333 89 46 73 c 0
 42 17 35.6666666667 -20.3333333333 27 -39 c 0
 8.33333333333 -72.3333333333 -5.66666666667 -89.6666666667 -15 -91 c 2
 -15 -91 -15 -91 -16 -91 c 1
 -16 -91 l 1
 -17 -91 l 1
 -17 -92 l 1
 -18 -92 l 1
 -18 -91 -18 -91 -18 -92 c 1
 -18.6666666667 -91.3333333333 -19 -91.3333333333 -19 -92 c 1
 -19 -91 -19 -91 -19 -92 c 1
 -19.6666666667 -91.3333333333 -20.3333333333 -91 -21 -91 c 1
 -20.3333333333 -90.3333333333 -20.3333333333 -90.3333333333 -21 -91 c 1
 -21 -90 l 1
 -21 -90 -21 -90 -21 -90 c 1
 -22.3333333333 -90 -23 -89.6666666667 -23 -89 c 2
 -23 -88 l 1
 -23 -88 -23 -88 -23 -88 c 1
 -23 -87 l 1
 -23 -87 l 1
 -23 -87 -23 -87 -23 -86 c 1
 -23 -86 -23 -86 -23 -86 c 1
 -23 -85 -23 -85 -23 -85 c 1
 -23 -85 l 1
 -23 -84 l 1
 -23 -84 -23 -84 -22 -84 c 1
 -22 -83 l 1
 -22 -83 l 1
 -14 -73 -6 -54.1666666667 2 -26.5 c 128
 10 1.16666666667 14.3333333333 34.3333333333 15 73 c 0
 14.3333333333 118.333333333 10.6666666667 154.333333333 4 181 c 0
 -5.33333333333 218.333333333 -14 241 -22 249 c 1
 -23 249 l 1
 -23 250 l 1
 -23 250 -23 250 -23 250 c 257
 -23 250 -23 250 -23 251 c 2
 -23 251 -23 251 -23 252 c 1
 -23 252 -23 252 -23 252 c 1
 -23 253 l 1
 -23 253 -23 253 -23 253 c 257
 -23 253 -23 253 -23 254 c 1
 -22 254 -22 254 -22 254 c 1
 -22 255 l 1
 -21 255 l 1
 -21 255 -21 255 -21 256 c 1
 -21 256 l 1
 -21 256 -21 256 -20 256 c 2
 -20 256 -20 256 -19 257 c 1
 -19 256.333333333 -18.6666666667 256.333333333 -18 257 c 1
 -18 256.333333333 -17.6666666667 256.333333333 -17 257 c 1
 -17 256 -17 256 -17 257 c 1
 -16 256 -16 256 -16 256 c 257
 -16 256 -16 256 -16 256 c 1
 -15 256 -15 256 -15 256 c 1
-124 -85 m 1
 -124 -86 -124 -86 -124 -86 c 129
 -124 -86 -124 -86 -124 -86.5 c 128
 -124 -87 -124 -87 -124 -87 c 257
 -124 -87 -124 -87 -124 -87 c 257
 -124 -87 -124 -87 -124 -87.5 c 128
 -124 -88 -124 -88 -124 -88 c 2
 -124 -89 -124 -89 -124 -89 c 1
 -124.666666667 -89 -125.333333333 -89.3333333333 -126 -90 c 1
 -126 -90 -126 -90 -126 -90 c 1
 -126 -91 l 1
 -126 -91 -126 -91 -126 -91 c 1
 -126.666666667 -91 -127.333333333 -91.3333333333 -128 -92 c 2
 -128 -92 -128 -92 -128.5 -92 c 128
 -129 -92 -129 -92 -129 -92 c 257
 -129 -92 -129 -92 -129 -92 c 1
 -130 -92 l 1
 -130 -92 -130 -92 -130.5 -91.5 c 128
 -131 -91 -131 -91 -131 -91 c 257
 -131 -91 -131 -91 -131 -91 c 1
 -132 -91 -132 -91 -132 -91 c 1
 -148.666666667 -81 -162.666666667 -63.6666666667 -174 -39 c 0
 -186.666666667 -9 -193 28.3333333333 -193 73 c 0
 -193 97 -191.166666667 120.5 -187.5 143.5 c 128
 -183.833333333 166.5 -177.166666667 188.666666667 -167.5 210 c 128
 -157.833333333 231.333333333 -146 246.666666667 -132 256 c 1
 -132 256 -132 256 -131 256 c 1
 -131 256 -131 256 -131 256.5 c 128
 -131 256.833333333 -130.833333333 257 -130.5 257 c 128
 -130 257 -130 257 -129.5 257 c 128
 -129 257 -129 257 -129 257 c 257
 -129 257 -129 257 -128.5 257 c 128
 -128 257 -128 257 -128 257 c 2
 -127.333333333 257 -127 256.666666667 -127 256 c 1
 -127 256 -127 256 -127 256 c 1
 -126 256 -126 256 -126 256 c 1
 -126 256 l 1
 -126 255 -126 255 -126 255 c 1
 -125.333333333 255 -125 254.833333333 -125 254.5 c 128
 -125 254 -125 254 -125 254 c 257
 -125 254 -125 254 -124 254 c 1
 -124 254 -124 254 -124 253.5 c 128
 -124 253 -124 253 -124 253 c 2
 -124 252 -124 252 -124 252 c 257
 -124 252 -124 252 -124 251.5 c 128
 -124 251 -124 251 -124 251 c 129
 -124 251 -124 251 -124 250 c 1
 -124 250 -124 250 -124 250 c 257
 -124 250 -124 250 -124 249 c 1
 -124 249 -124 249 -125 249 c 0
 -135.666666667 230.333333333 -144.5 207.666666667 -151.5 181 c 128
 -158.5 154.333333333 -162 118.333333333 -162 73 c 0
 -162 52.3333333333 -160.5 32.5 -157.5 13.5 c 128
 -154.5 -5.5 -150.833333333 -21.5 -146.5 -34.5 c 128
 -142.166666667 -47.5 -138.166666667 -58 -134.5 -66 c 128
 -130.833333333 -74 -127.666666667 -79.6666666667 -125 -83 c 1
 -125 -83 -125 -83 -125 -84 c 1
 -124 -84 -124 -84 -124 -84 c 1
 -124 -85 l 1
 -124 -85 -124 -85 -124 -85 c 1
EndSplineSet
EndChar

StartChar: SharpPar
Encoding: 137 63113 9
Width: 0
Flags: HW
LayerCount: 2
Fore
SplineSet
-62 154 m 1
 -62 255 l 1
 -59.3333333333 255.666666667 -56.6666666667 256 -54 256 c 128
 -51.3333333333 256 -48.3333333333 255.666666667 -45 255 c 1
 -45 156 l 1
 -26 158 l 2
 -25.3333333333 158 -24.5 157.666666667 -23.5 157 c 128
 -22.5 156.333333333 -21.8333333333 155.833333333 -21.5 155.5 c 128
 -21.1666666667 155.166666667 -20.8333333333 154.5 -20.5 153.5 c 128
 -20.1666666667 152.5 -19.6666666667 151.333333333 -19 150 c 0
 -18.3333333333 140.666666667 -20.6666666667 131.333333333 -26 122 c 1
 -45 119 l 1
 -45 44 l 1
 -26 47 l 2
 -25.3333333333 47 -24.5 46.6666666667 -23.5 46 c 128
 -22.5 45.3333333333 -21.8333333333 44.8333333333 -21.5 44.5 c 128
 -21.1666666667 44.1666666667 -20.8333333333 43.5 -20.5 42.5 c 128
 -20.1666666667 41.5 -19.6666666667 40.3333333333 -19 39 c 0
 -18.3333333333 29.6666666667 -20.6666666667 20.3333333333 -26 11 c 1
 -45 8 l 1
 -45 -91 l 1
 -47.6666666667 -91.6666666667 -50.5 -92 -53.5 -92 c 128
 -56.5 -92 -59.3333333333 -91.6666666667 -62 -91 c 1
 -62 5 l 1
 -86 2 l 1
 -86 -41 l 1
 -86 -98 l 1
 -88.6666666667 -98.6666666667 -91.5 -99.1666666667 -94.5 -99.5 c 128
 -97.5 -99.8333333333 -100.333333333 -99.3333333333 -103 -98 c 1
 -103 -1 l 1
 -122 -4 l 1
 -126 -0.666666666667 -128.333333333 2.33333333333 -129 5 c 0
 -129.666666667 14.3333333333 -127.333333333 23.6666666667 -122 33 c 1
 -103 36 l 1
 -103 111 l 1
 -122 108 l 2
 -122.666666667 108.666666667 -123.5 109.333333333 -124.5 110 c 128
 -125.5 110.666666667 -126.166666667 111.166666667 -126.5 111.5 c 128
 -126.833333333 111.833333333 -127.166666667 112.333333333 -127.5 113 c 128
 -128 114 -128 114 -129 116 c 0
 -129.666666667 125.333333333 -127.333333333 135 -122 145 c 1
 -103 147 l 1
 -103 247 l 1
 -101.666666667 247 -100.666666667 247.166666667 -100 247.5 c 128
 -99 248 -99 248 -98 248.5 c 128
 -97.3333333333 248.833333333 -96.6666666667 249 -96 249 c 2
 -94 249 l 2
 -91.3333333333 249 -88.6666666667 248.333333333 -86 247 c 1
 -86 150 l 1
 -62 154 l 1
-103 36 m 1024
-86 38 m 1
 -62 42 l 1
 -62 117 l 1
 -86 113 l 1
 -86 38 l 1
-15 256 m 1
 -1 246.666666667 11 231.333333333 21 210 c 0
 30.3333333333 188.666666667 37 166.666666667 41 144 c 0
 45.6666666667 113.333333333 47.3333333333 89.6666666667 46 73 c 0
 42 16.3333333333 35.6666666667 -21 27 -39 c 0
 6.33333333333 -75 -7.66666666667 -92.3333333333 -15 -91 c 2
 -15 -91 -15 -91 -16 -91 c 1
 -16 -91 l 1
 -17 -91 l 1
 -17 -92 l 1
 -18 -92 l 1
 -18 -91 -18 -91 -18 -92 c 1
 -18.6666666667 -91.3333333333 -19 -91.3333333333 -19 -92 c 1
 -19 -91 -19 -91 -19 -92 c 1
 -19.6666666667 -91.3333333333 -20.3333333333 -91 -21 -91 c 1
 -20.3333333333 -90.3333333333 -20.3333333333 -90.3333333333 -21 -91 c 1
 -21 -90 l 1
 -21 -90 -21 -90 -21 -90 c 1
 -22.3333333333 -90 -23 -89.6666666667 -23 -89 c 2
 -23 -88 l 1
 -23 -88 l 1
 -23 -87 l 1
 -23 -87 l 1
 -23 -86 l 1
 -23 -86 -23 -86 -23 -86 c 1
 -23 -85 -23 -85 -23 -85 c 1
 -23 -85 l 1
 -23 -84 l 1
 -23 -84 -23 -84 -22 -84 c 1
 -22 -83 l 1
 -22 -83 l 1
 -14 -73 -6 -54.1666666667 2 -26.5 c 128
 10 1.16666666667 14.3333333333 34.3333333333 15 73 c 0
 14.3333333333 118.333333333 10.6666666667 154.333333333 4 181 c 0
 -5.33333333333 218.333333333 -14 241 -22 249 c 1
 -23 249 l 1
 -23 250 l 1
 -23 250 -23 250 -23 250 c 257
 -23 250 -23 250 -23 251 c 2
 -23 251 -23 251 -23 252 c 1
 -23 252 -23 252 -23 252 c 1
 -23 253 l 1
 -23 253 -23 253 -23 253 c 257
 -23 253 -23 253 -23 254 c 1
 -22 254 -22 254 -22 254 c 1
 -22 255 l 1
 -21 255 l 1
 -21 255 -21 255 -21 256 c 1
 -21 256 l 1
 -20 256 l 1
 -20 256 -20 256 -19 257 c 1
 -19 256.333333333 -18.6666666667 256.333333333 -18 257 c 1
 -18 256.333333333 -17.6666666667 256.333333333 -17 257 c 1
 -17 256 -17 256 -17 257 c 1
 -16 256 -16 256 -16 256 c 257
 -16 256 -16 256 -16 256 c 1
 -15 256 -15 256 -15 256 c 1
-124 -85 m 1
 -124 -86 -124 -86 -124 -86 c 129
 -124 -86 -124 -86 -124 -86.5 c 128
 -124 -87 -124 -87 -124 -87 c 257
 -124 -87 -124 -87 -124 -87 c 257
 -124 -87 -124 -87 -124 -87.5 c 128
 -124 -88 -124 -88 -124 -88 c 2
 -124 -89 -124 -89 -124 -89 c 1
 -124.666666667 -89 -125.333333333 -89.3333333333 -126 -90 c 1
 -126 -90 -126 -90 -126 -90 c 1
 -126 -91 l 1
 -126 -91 -126 -91 -126 -91 c 1
 -126.666666667 -91 -127.333333333 -91.3333333333 -128 -92 c 2
 -128 -92 -128 -92 -128.5 -92 c 128
 -129 -92 -129 -92 -129 -92 c 257
 -129 -92 -129 -92 -129 -92 c 1
 -130 -92 l 1
 -130 -92 -130 -92 -130.5 -91.5 c 128
 -131 -91 -131 -91 -131 -91 c 257
 -131 -91 -131 -91 -131 -91 c 1
 -132 -91 -132 -91 -132 -91 c 1
 -148.666666667 -81 -162.666666667 -63.6666666667 -174 -39 c 0
 -186.666666667 -9 -193 28.3333333333 -193 73 c 0
 -193 97 -191.166666667 120.5 -187.5 143.5 c 128
 -183.833333333 166.5 -177.166666667 188.666666667 -167.5 210 c 128
 -157.833333333 231.333333333 -146 246.666666667 -132 256 c 1
 -132 256 -132 256 -131 256 c 1
 -131 256 -131 256 -131 256.5 c 128
 -131 256.833333333 -130.833333333 257 -130.5 257 c 128
 -130 257 -130 257 -129.5 257 c 128
 -129 257 -129 257 -129 257 c 257
 -129 257 -129 257 -128.5 257 c 128
 -128 257 -128 257 -128 257 c 2
 -127.333333333 257 -127 256.666666667 -127 256 c 1
 -127 256 -127 256 -127 256 c 1
 -126 256 -126 256 -126 256 c 1
 -126 256 l 1
 -126 255 -126 255 -126 255 c 1
 -125.333333333 255 -125 254.833333333 -125 254.5 c 128
 -125 254 -125 254 -125 254 c 257
 -125 254 -125 254 -124 254 c 1
 -124 254 -124 254 -124 253.5 c 128
 -124 253 -124 253 -124 253 c 2
 -124 252 -124 252 -124 252 c 257
 -124 252 -124 252 -124 251.5 c 128
 -124 251 -124 251 -124 251 c 129
 -124 251 -124 251 -124 250 c 1
 -124 250 -124 250 -124 250 c 257
 -124 250 -124 250 -124 249 c 1
 -124 249 -124 249 -125 249 c 0
 -135.666666667 230.333333333 -144.5 207.666666667 -151.5 181 c 128
 -158.5 154.333333333 -162 118.333333333 -162 73 c 0
 -162 52.3333333333 -160.5 32.5 -157.5 13.5 c 128
 -154.5 -5.5 -150.833333333 -21.5 -146.5 -34.5 c 128
 -142.166666667 -47.5 -138.166666667 -58 -134.5 -66 c 128
 -130.833333333 -74 -127.666666667 -79.6666666667 -125 -83 c 1
 -125 -83 -125 -83 -125 -84 c 1
 -124 -84 -124 -84 -124 -84 c 1
 -124 -85 l 1
 -124 -85 -124 -85 -124 -85 c 1
EndSplineSet
EndChar

StartChar: NaturalPar
Encoding: 138 63115 10
Width: 0
Flags: HW
LayerCount: 2
Fore
SplineSet
-114.5 283.5 m 128
 -112.833333333 283.833333333 -110.666666667 284 -108 284 c 128
 -105.333333333 284 -102.333333333 283.666666667 -99 283 c 1
 -99 211 l 1
 -100 163 l 1
 -76 167 l 2
 -62.6666666667 169.666666667 -51 171 -41 171 c 0
 -37.6666666667 171 -36 169.333333333 -36 166 c 2
 -32 -120 l 1
 -34.6666666667 -123.333333333 -37.6666666667 -125 -41 -125 c 0
 -41.6666666667 -125 -45.6666666667 -124 -53 -122 c 1
 -52.3333333333 -120.666666667 -52 -94 -52 -42 c 2
 -52 -6 l 1
 -110 -15 l 2
 -114 -14.3333333333 -116.666666667 -11.6666666667 -118 -7 c 2
 -118 98 l 1
 -119 196 l 1
 -120 266 l 1
 -120 283 l 1
 -118 283 -116.166666667 283.166666667 -114.5 283.5 c 128
-50 128 m 1
 -100 119 l 2
 -100.666666667 119 -101 89.3333333333 -101 30 c 1
 -50 38 l 1
 -50 128 l 1
-15 256 m 1
 -1 246.666666667 11 231.333333333 21 210 c 0
 30.3333333333 188.666666667 37 166.666666667 41 144 c 0
 45 116 46.6666666667 92.3333333333 46 73 c 0
 43.3333333333 13.6666666667 37.6666666667 -24 29 -40 c 0
 9 -70.6666666667 -5 -88 -13 -92 c 0
 -14.3333333333 -91.3333333333 -15.3333333333 -91 -16 -91 c 1
 -16 -91 l 1
 -17 -91 l 1
 -17 -92 l 1
 -18 -92 l 1
 -18 -92 -18 -92 -18 -92 c 1
 -19 -92 -19 -92 -19 -92 c 1
 -19 -91 -19 -91 -19 -92 c 1
 -19.6666666667 -91.3333333333 -20.3333333333 -91 -21 -91 c 1
 -20.3333333333 -90.3333333333 -20.3333333333 -90.3333333333 -21 -91 c 1
 -21 -90 l 1
 -21 -90 -21 -90 -21 -90 c 1
 -22.3333333333 -90 -23 -89.6666666667 -23 -89 c 2
 -23 -88 l 1
 -23 -88 l 1
 -23 -87 l 1
 -23 -87 l 1
 -23 -86 l 1
 -23 -86 -23 -86 -23 -86 c 1
 -23 -85 -23 -85 -23 -85 c 1
 -23 -85 l 1
 -23 -84 l 1
 -23 -84 -23 -84 -22 -84 c 1
 -22 -83 l 1
 -22 -83 l 1
 -14 -73 -6 -54.3333333333 2 -27 c 0
 10.6666666667 3.66666666667 15 37 15 73 c 0
 14.3333333333 118.333333333 10.6666666667 154.333333333 4 181 c 0
 -5.33333333333 218.333333333 -14 241 -22 249 c 1
 -23 249 l 1
 -23 250 l 1
 -23 251 -23 251 -23 250 c 1
 -23.6666666667 250.666666667 -23.6666666667 251 -23 251 c 1
 -23 251 -23 251 -23 252 c 1
 -23 252 -23 252 -23 252 c 1
 -23 253 l 1
 -23 253 -23 253 -23 253 c 257
 -23 253 -23 253 -23 254 c 1
 -22 254 -22 254 -22 254 c 1
 -22 255 l 1
 -21 255 l 1
 -21 255 -21 255 -21 256 c 1
 -21 256 l 1
 -20 256 l 1
 -20 256 -20 256 -19 257 c 1
 -18.3333333333 255.666666667 -18 255.666666667 -18 257 c 1
 -18 257 -18 257 -17.5 256.5 c 128
 -17.1666666667 256.166666667 -17 256.333333333 -17 257 c 1
 -16 256 -16 256 -16 256 c 257
 -16 256 -16 256 -16 256 c 1
 -15 256 -15 256 -15 256 c 1
-124 -85 m 1
 -124 -86 -124 -86 -124 -86 c 129
 -124 -86 -124 -86 -124 -86.5 c 128
 -124 -87 -124 -87 -124 -87 c 257
 -124 -87 -124 -87 -124 -87 c 257
 -124 -87 -124 -87 -124 -87.5 c 128
 -124 -88 -124 -88 -124 -88 c 2
 -124 -89 -124 -89 -124 -89 c 1
 -124.666666667 -89 -125.333333333 -89.3333333333 -126 -90 c 1
 -126 -90 -126 -90 -126 -90 c 1
 -126 -91 l 1
 -126 -91 -126 -91 -126 -91 c 1
 -126.666666667 -91 -127.333333333 -91.3333333333 -128 -92 c 2
 -128 -92 -128 -92 -128.5 -92 c 128
 -129 -92 -129 -92 -129 -92 c 257
 -129 -92 -129 -92 -129 -92 c 1
 -130 -92 l 1
 -130 -92 -130 -92 -130.5 -91.5 c 128
 -131 -91 -131 -91 -131 -91 c 257
 -131 -91 -131 -91 -131 -91 c 1
 -132 -91 -132 -91 -132 -91 c 1
 -148.666666667 -81 -162.666666667 -63.6666666667 -174 -39 c 0
 -186.666666667 -9 -193 28.3333333333 -193 73 c 0
 -193 97 -191.166666667 120.5 -187.5 143.5 c 128
 -183.833333333 166.5 -177.166666667 188.666666667 -167.5 210 c 128
 -157.833333333 231.333333333 -146 246.666666667 -132 256 c 1
 -132 256 -132 256 -131 256 c 1
 -131 256 -131 256 -131 256.5 c 128
 -131 256.833333333 -130.833333333 257 -130.5 257 c 128
 -130 257 -130 257 -129.5 257 c 128
 -129 257 -129 257 -129 257 c 257
 -129 257 -129 257 -128.5 257 c 128
 -128 257 -128 257 -128 257 c 2
 -127.333333333 257 -127 256.666666667 -127 256 c 1
 -127 256 -127 256 -127 256 c 1
 -126 256 -126 256 -126 256 c 1
 -126 256 l 1
 -126 255 -126 255 -126 255 c 1
 -125.333333333 255 -125 254.833333333 -125 254.5 c 128
 -125 254 -125 254 -125 254 c 257
 -125 254 -125 254 -124 254 c 1
 -124 254 -124 254 -124 253.5 c 128
 -124 253 -124 253 -124 253 c 2
 -124 252 -124 252 -124 252 c 257
 -124 252 -124 252 -124 251.5 c 128
 -124 251 -124 251 -124 251 c 129
 -124 251 -124 251 -124 250 c 1
 -124 250 -124 250 -124 250 c 257
 -124 250 -124 250 -124 249 c 1
 -124 249 -124 249 -125 249 c 0
 -135.666666667 230.333333333 -144.5 207.666666667 -151.5 181 c 128
 -158.5 154.333333333 -162 118.333333333 -162 73 c 0
 -162 52.3333333333 -160.5 32.5 -157.5 13.5 c 128
 -154.5 -5.5 -150.833333333 -21.5 -146.5 -34.5 c 128
 -142.166666667 -47.5 -138.166666667 -58 -134.5 -66 c 128
 -130.833333333 -74 -127.666666667 -79.6666666667 -125 -83 c 1
 -125 -83 -125 -83 -125 -84 c 1
 -124 -84 -124 -84 -124 -84 c 1
 -124 -85 l 1
 -124 -85 -124 -85 -124 -85 c 1
EndSplineSet
EndChar

StartChar: LiqueSecond
Encoding: 139 63114 11
Width: 168
Flags: HW
LayerCount: 2
Fore
SplineSet
0 -19 m 1
 0 167 l 2
 0 168.333333333 1.66666666667 170.333333333 5 173 c 128
 8.33333333333 175.666666667 13.3333333333 177 20 177 c 0
 68 176.333333333 112.666666667 168.666666667 154 154 c 0
 163.333333333 151.333333333 168 147.666666667 168 143 c 2
 168 -148 l 2
 168 -152 167.333333333 -155.5 166 -158.5 c 128
 164.666666667 -161.5 162.666666667 -164 160 -166 c 128
 157.333333333 -168 154.166666667 -169.666666667 150.5 -171 c 128
 146.833333333 -172.333333333 142.666666667 -173 138 -173 c 0
 123.333333333 -173 110.833333333 -168 100.5 -158 c 128
 90.1666666667 -148 85 -136.666666667 85 -124 c 2
 85 -42 l 1
 95 -54 109.333333333 -60.3333333333 128 -61 c 0
 132.666666667 -61 137 -58.5 141 -53.5 c 128
 145 -48.5 147.666666667 -43 149 -37 c 0
 147.666666667 -30.3333333333 144 -25.3333333333 138 -22 c 0
 129.333333333 -17.3333333333 112.166666667 -13 86.5 -9 c 128
 60.8333333333 -5 38.3333333333 -3.33333333333 19 -4 c 0
 16.3333333333 -4 12.6666666667 -5.83333333333 8 -9.5 c 128
 3.33333333333 -13.1666666667 0.666666666667 -16.3333333333 0 -19 c 1
EndSplineSet
EndChar

StartChar: LiqueThird
Encoding: 140 63116 12
Width: 233
Flags: HW
LayerCount: 2
Fore
SplineSet
-5 -4 m 1
 -4 -4 l 2
 10.6666666667 -5.33333333333 22 -6 30 -6 c 0
 42.6666666667 -6 60 -7.83333333333 82 -11.5 c 128
 104 -15.1666666667 121 -19 133 -23 c 0
 141 -25.6666666667 145 -33 145 -45 c 2
 145 -170 l 2
 145 -177.333333333 142.666666667 -184.333333333 138 -191 c 128
 133.333333333 -197.666666667 128.333333333 -201 123 -201 c 0
 104.333333333 -200.333333333 90 -194 80 -182 c 1
 80 -264 l 2
 80 -272 82.3333333333 -279.833333333 87 -287.5 c 128
 91.6666666667 -295.166666667 98.1666666667 -301.333333333 106.5 -306 c 128
 114.833333333 -310.666666667 123.666666667 -313 133 -313 c 0
 137.666666667 -313 141.833333333 -312.333333333 145.5 -311 c 128
 149.166666667 -309.666666667 152.333333333 -308 155 -306 c 128
 157.666666667 -304 159.666666667 -301.5 161 -298.5 c 128
 162.333333333 -295.5 163 -292 163 -288 c 2
 163 142 l 2
 163 146.666666667 158.333333333 150.333333333 149 153 c 0
 83 171.666666667 38.3333333333 181.333333333 15 182 c 0
 11.6666666667 182 8.66666666667 181.666666667 6 181 c 128
 3.33333333333 180.333333333 1.33333333333 179.666666667 0 179 c 256
 -1.33333333333 178.333333333 -2.33333333333 177.333333333 -3 176 c 2
 -4 173 l 1
 -5 170 l 1
 -5 -4 l 1
EndSplineSet
EndChar

StartChar: LiqueFourth
Encoding: 141 63117 13
Width: 233
Flags: HW
LayerCount: 2
Fore
SplineSet
-5 15 m 1
 14 14 l 1
 38 12 l 1
 55 11 l 1
 77 8 l 1
 94 7 l 1
 113 4 l 1
 133 -5 l 1
 142 -14 l 1
 145 -26 l 1
 145 -334 l 1
 143 -346 l 1
 138 -356 l 1
 131 -364 l 1
 123 -366 l 1
 98 -361 l 1
 80 -347 l 1
 80 -428 l 1
 82 -441 l 1
 87 -452 l 1
 95 -463 l 1
 106 -471 l 1
 119 -476 l 1
 133 -478 l 1
 142 -477 l 1
 149 -475 l 1
 155 -471 l 1
 160 -466 l 1
 162 -460 l 1
 163 -453 l 1
 163 161 l 1
 160 167 l 1
 149 172 l 1
 15 194 l 1
 6 194 l 1
 0 191 l 1
 -4 187 l 1
 -5 184 l 1
 -5 15 l 1
-4 10 m 1024
-5 10 m 1024
EndSplineSet
EndChar

StartChar: LiqueFifth
Encoding: 142 63118 14
Width: 233
Flags: HW
LayerCount: 2
Fore
SplineSet
-5 14 m 1
 -5 184 l 2
 -5 186 -3.33333333333 188.333333333 0 191 c 128
 3.33333333333 193.666666667 8.33333333333 194.666666667 15 194 c 0
 63 194 107.666666667 186.666666667 149 172 c 0
 158.333333333 168.666666667 163 165 163 161 c 2
 163 -611 l 2
 163 -615.666666667 161.833333333 -619.833333333 159.5 -623.5 c 128
 157.166666667 -627.166666667 153.666666667 -630 149 -632 c 128
 144.333333333 -634 138.666666667 -635 132 -635 c 128
 125.333333333 -635 118.666666667 -633.666666667 112 -631 c 128
 105.333333333 -628.333333333 99.6666666667 -624.666666667 95 -620 c 128
 90.3333333333 -615.333333333 86.6666666667 -610 84 -604 c 128
 81.3333333333 -598 80 -592 80 -586 c 2
 80 -505 l 1
 90 -517 104.333333333 -523 123 -523 c 0
 126.333333333 -523 129.833333333 -521.5 133.5 -518.5 c 128
 137.166666667 -515.5 140 -511.5 142 -506.5 c 128
 144 -501.5 145 -496.666666667 145 -492 c 2
 145 -26 l 2
 145 -16.6666666667 141 -9.66666666667 133 -5 c 0
 120.333333333 1.66666666667 107.333333333 5.66666666667 94 7 c 0
 70.6666666667 8.33333333333 55.3333333333 10 48 12 c 2
 14 14 l 1
 -5 14 l 1
 -5 14 l 1
-3 0 m 1024
-5 0 m 1024
EndSplineSet
EndChar

StartChar: ScandicusQuilismaticoHead
Encoding: 143 63122 15
Width: 263
Flags: HW
LayerCount: 2
Fore
SplineSet
142 -3 m 1024
162 66 m 1024
162 75 m 1
 162 75 162 75 155 47 c 1
 155 48 l 1
 155 47 l 1
 147 17 127.333333333 -8 96 -28 c 0
 78 -39.3333333333 54.3333333333 -34.6666666667 25 -14 c 0
 19 -9.33333333333 14.6666666667 -1 12 11 c 0
 9.33333333333 21 11 36 17 56 c 0
 26.3333333333 88 36.3333333333 109 47 119 c 0
 48 120 48 120 48 120 c 257
 48 120 48 120 48 121 c 1
 48 121 48 121 48 121 c 1
 49 122 49 122 49 122 c 2
 50 123 50 123 50 123 c 2
 50 124.333333333 50.3333333333 124.666666667 51 124 c 1
 51 124 51 124 52 125 c 0
 52 126 52 126 52 126 c 2
 52 126.666666667 52.3333333333 126.666666667 53 126 c 1
 53 127 l 1
 54 127 l 1
 54 128 54 128 54 128 c 2
 55 129 55 129 55 129 c 257
 55 129 55 129 55.5 129 c 128
 56 129 56 129 56 129 c 257
 56 129 56 129 57 129 c 1
 57 130 57 130 57 130 c 257
 57 130 57 130 57 130 c 257
 57 130 57 130 58 129 c 1
 58 129 58 129 58 129 c 257
 58 129 58 129 58 129 c 1
 58 128 l 1
 58 128 l 1
 57 127 l 1
 49.6666666667 113 45.3333333333 94.6666666667 44 72 c 0
 44 54.6666666667 50.3333333333 41.3333333333 63 32 c 0
 69 27.3333333333 76.6666666667 24.6666666667 86 24 c 0
 94.6666666667 23.3333333333 103.333333333 24.3333333333 112 27 c 0
 135.333333333 34.3333333333 148.666666667 59.3333333333 152 102 c 0
 152 109 152 109 152 115 c 0
 152 126.333333333 151 137.333333333 149 148 c 0
 146.333333333 162.666666667 141 172 133 176 c 128
 125 180 107.666666667 182 81 182 c 128
 54.3333333333 182 31 175 11 161 c 1
 11 294 l 2
 11 327.333333333 36.3333333333 344 87 344 c 0
 142.333333333 344 169.333333333 325.333333333 168 288 c 2
 162 75 l 1
 162 75 l 1
EndSplineSet
EndChar

StartChar: ScandicusQuilismaticoTail
Encoding: 144 63123 16
Width: 263
Flags: HW
LayerCount: 2
Fore
SplineSet
245 60 m 1
 245 60 245 60 245 60 c 129
 245 60 245 60 245 60 c 129
 245 60 245 60 245 60 c 257
 245 60 245 60 245 60 c 129
 245 60 245 60 245 59.5 c 128
 245 59 245 59 245 59 c 129
 245 59 245 59 245 59 c 1
 245 58.3333333333 244.666666667 57.3333333333 244 56 c 2
 244 56 244 56 243 55 c 1
 243 55 l 1
 243 55 243 55 243 54 c 0
 242 53 242 53 241.5 52.5 c 128
 241 52 241 52 240.5 51.5 c 128
 240.166666667 51.1666666667 240 50.6666666667 240 50 c 1
 240 50 240 50 239 50 c 1
 239 49 l 1
 239 49 239 49 238 48.5 c 128
 237 48 237 48 237 48 c 257
 237 48 237 48 237 47 c 0
 236.333333333 46.3333333333 236 46.3333333333 236 47 c 1
 210 21.6666666667 186 4 164 -6 c 0
 136.666666667 -18.6666666667 116 -19.3333333333 102 -8 c 0
 94.6666666667 -1.33333333333 89.6666666667 8 87 20 c 128
 84.3333333333 32 86.1666666667 48.5 92.5 69.5 c 128
 98.8333333333 90.5 110 113.333333333 126 138 c 0
 126 138.666666667 126.333333333 139 127 139 c 1
 127 140 127 140 127 140 c 129
 127 140 127 140 127.5 141 c 128
 127.833333333 141.666666667 128.166666667 142 128.5 142 c 128
 128.833333333 142 129 142.333333333 129 143 c 0
 129.666666667 143.666666667 130.166666667 144 130.5 144 c 128
 130.833333333 144 131 144.333333333 131 145 c 0
 132 146 132 146 132 146 c 257
 132 146 132 146 132 146 c 1
 133 147 133 147 133 147 c 1
 134 147 l 1
 134 148 134 148 134 148 c 2
 134.666666667 148.666666667 135.166666667 149 135.5 149 c 128
 136 149 136 149 136 149 c 129
 136 149 136 149 137 150 c 1
 137 150 137 150 137 150 c 129
 137 150 137 150 137 150 c 1
 138 150 138 150 138 150 c 129
 138 150 138 150 138 150 c 129
 138 150 138 150 138 149.5 c 128
 138 149 138 149 138 149 c 129
 138 149 138 149 138 149 c 257
 138 149 138 149 138 148.5 c 128
 138 148.166666667 137.666666667 148 137 148 c 0
 128.333333333 125.333333333 123.666666667 105 123 87 c 128
 122.333333333 69 129.333333333 54 144 42 c 0
 150.666666667 36.6666666667 158.833333333 33.6666666667 168.5 33 c 128
 178.166666667 32.3333333333 188 33.6666666667 198 37 c 128
 208 40.3333333333 216.666666667 43.8333333333 224 47.5 c 128
 231.333333333 51.1666666667 237.666666667 55 243 59 c 1
 243 59 243 59 243 59 c 1
 244 60 244 60 244 60 c 1
 244 60 l 1
 244 60 244 60 245 60 c 1
344 132 m 1
 344 132 344 132 344 131.5 c 128
 344 131 344 131 344 131 c 129
 344 131 344 131 344 131 c 257
 344 131 344 131 344 131 c 129
 344 131 344 131 344 130.5 c 128
 344 130 344 130 344 130 c 129
 344 130 344 130 344 130 c 1
 344 129.333333333 343.666666667 128.666666667 343 128 c 2
 343 128 343 128 342 127 c 1
 342 127 l 1
 342 126 342 126 342 126 c 2
 341.333333333 125.333333333 340.833333333 124.666666667 340.5 124 c 128
 340.166666667 123.333333333 339.833333333 122.833333333 339.5 122.5 c 128
 339 122 339 122 339 122 c 257
 339 122 339 122 338 121 c 2
 338 120 l 1
 338 120 338 120 337 119.5 c 128
 336 119 336 119 336 119 c 257
 336 119 336 119 336 119 c 1
 335 118 335 118 335 118 c 2
 309 93.3333333333 285 75.6666666667 263 65 c 0
 235.666666667 52.3333333333 215 52 201 64 c 0
 193.666666667 70 188.666666667 79 186 91 c 128
 183.333333333 103 185.166666667 119.5 191.5 140.5 c 128
 197.833333333 161.5 209 184.666666667 225 210 c 1
 225 210 225 210 226 211 c 0
 226 212 226 212 226 212 c 129
 226 212 226 212 226.5 212.5 c 128
 227 213 227 213 227.5 213.5 c 128
 228 214 228 214 228 214 c 2
 229 215 229 215 229.5 215.5 c 128
 229.833333333 215.833333333 230 216.333333333 230 217 c 1
 231 217 231 217 231 217 c 1
 231 218 231 218 231 218 c 1
 232 218 232 218 232 218 c 1
 233 219 l 2
 233 220 233 220 233 220 c 1
 233.666666667 220 234.166666667 220.166666667 234.5 220.5 c 128
 235 221 235 221 235 221 c 129
 235 221 235 221 236 221 c 1
 236 221 236 221 236 221.5 c 128
 236 222 236 222 236 222 c 1
 237 221 237 221 237 221 c 129
 237 221 237 221 237 221 c 129
 237 221 237 221 237 221 c 129
 237 221 237 221 237 221 c 129
 237 221 237 221 237 220 c 1
 237 220 237 220 237 220 c 129
 237 220 237 220 236 219 c 0
 227.333333333 197 222.666666667 177 222 159 c 128
 221.333333333 141 228.333333333 126 243 114 c 0
 249.666666667 108 257.833333333 104.833333333 267.5 104.5 c 128
 277.166666667 104.166666667 287 105.666666667 297 109 c 128
 307 112.333333333 315.666666667 115.833333333 323 119.5 c 128
 330.333333333 123.166666667 336.666666667 127 342 131 c 1
 342 131 342 131 342 131 c 1
 343 131 343 131 343 131 c 1
 343 131 l 1
 343 131 343 131 344 132 c 1
EndSplineSet
EndChar

StartChar: uniF69F
Encoding: 145 63135 17
Width: 263
Flags: HW
LayerCount: 2
Fore
SplineSet
158 62 m 1
 158 62 158 62 158 62 c 1
 159 63 159 63 159 63 c 1
 159 63 l 1
 159 63 159 63 159 63 c 257
 159 63 159 63 159.5 63 c 128
 160 63 160 63 160 63 c 129
 160 63 160 63 160 63 c 257
 160 63 160 63 160 63 c 129
 160 63 160 63 160 62.5 c 128
 160 62 160 62 160 62 c 129
 160 62 160 62 160 62 c 1
 160 61.3333333333 159.666666667 60.6666666667 159 60 c 2
 159 60 159 60 159 59 c 1
 159 59 l 1
 159 58 159 58 159 58 c 2
 158.333333333 57.3333333333 157.833333333 56.6666666667 157.5 56 c 128
 157.166666667 55.3333333333 157 54.8333333333 157 54.5 c 128
 157 54 157 54 157 54 c 257
 157 54 157 54 156 53 c 1
 158 62 l 1
142 -3 m 1024
169 54 m 1
 169 54 l 1
 166 394 l 2
 166 427.333333333 139.666666667 444 87 444 c 0
 36.3333333333 444 11 427.333333333 11 394 c 2
 11 261 l 1
 31 275 54.3333333333 282 81 282 c 128
 107.666666667 282 125 280 133 276 c 128
 141 272 146.333333333 262.666666667 149 248 c 0
 149.666666667 244.666666667 150.666666667 200.333333333 152 115 c 0
 152 109 152 109 152 102 c 0
 148 66.6666666667 137.666666667 44.3333333333 121 35 c 0
 113 31 104.5 28.5 95.5 27.5 c 128
 86.5 26.5 78.6666666667 27.6666666667 72 31 c 0
 57.3333333333 39.6666666667 49 52 47 68 c 0
 43.6666666667 90.6666666667 44.6666666667 109.666666667 50 125 c 1
 50 126 l 1
 50 126 l 1
 50 126 l 1
 50 126 50 126 50 127 c 1
 50 127 50 127 50 127 c 1
 49 127 49 127 49 127 c 257
 49 127 49 127 49 127 c 257
 49 127 49 127 49 127 c 1
 48 126 48 126 48 126 c 257
 48 126 48 126 48 126 c 1
 47 126 47 126 47 126 c 1
 47 125 47 125 47 125 c 257
 47 125 47 125 46 124 c 2
 46 123 l 1
 45 123 l 1
 45 123 45 123 45 122 c 2
 45 122 45 122 44 121 c 2
 44 121 44 121 44 120 c 2
 44 120 44 120 43 119 c 2
 43 119 43 119 43 118 c 1
 42.3333333333 118 42 117.666666667 42 117 c 256
 42 116 42 116 42 116 c 257
 42 116 42 116 41 116 c 1
 41 115 41 115 41 114 c 0
 30.3333333333 89.3333333333 24 67 22 47 c 0
 20 27.6666666667 21 12.6666666667 25 2 c 0
 29.6666666667 -9.33333333333 35.3333333333 -16.6666666667 42 -20 c 0
 72 -33.3333333333 98.5 -32.1666666667 121.5 -16.5 c 128
 144.5 -0.833333333333 160.333333333 22.6666666667 169 54 c 1
EndSplineSet
EndChar

StartChar: VirgaObliquaStanghetta
Encoding: 146 63130 18
Width: 168
Flags: HW
LayerCount: 2
Fore
SplineSet
167 -8 m 2
 167 -6.66666666667 162.5 -5.16666666667 153.5 -3.5 c 128
 144.5 -1.83333333333 136.666666667 -1 130 -1 c 0
 100 -1 75.3333333333 -5.33333333333 56 -14 c 0
 18.6666666667 -30.6666666667 0 -48.3333333333 0 -67 c 1
 0 -50 l 1
 0 108 l 2
 0 127.333333333 18.6666666667 145 56 161 c 0
 76 169.666666667 103.666666667 173.333333333 139 172 c 0
 151.666666667 172 161.333333333 168.333333333 168 161 c 0
 179.333333333 147.666666667 185 132.333333333 185 115 c 2
 185 -327 l 1
 167 -327 l 1
 167 -9 l 1
 167 -8 l 2
EndSplineSet
EndChar

StartChar: VirgaObliqua
Encoding: 147 63132 19
Width: 168
Flags: HW
LayerCount: 2
Fore
SplineSet
168 -8 m 1
 168 -6.66666666667 163.333333333 -5.16666666667 154 -3.5 c 128
 144.666666667 -1.83333333333 136.666666667 -1 130 -1 c 0
 100 -1 75.3333333333 -5.33333333333 56 -14 c 0
 18.6666666667 -30.6666666667 0 -48.3333333333 0 -67 c 1
 0 -50 l 1
 0 108 l 2
 0 126.666666667 18.6666666667 144.333333333 56 161 c 0
 75.3333333333 169.666666667 100 174 130 174 c 0
 136.666666667 174 144.666666667 173.166666667 154 171.5 c 128
 163.333333333 169.833333333 168 168.333333333 168 167 c 2
 168 -8 l 1
EndSplineSet
EndChar

StartChar: Virgola
Encoding: 148 63129 20
Width: 168
Flags: HW
LayerCount: 2
Fore
SplineSet
202 124 m 2
 202 124 202 124 204 100 c 0
 204.666666667 60.6666666667 200.666666667 36 192 26 c 0
 158.666666667 -11.3333333333 126 -30 94 -30 c 2
 62 -30 l 1
 -5 -30 l 1
 6.33333333333 -24.6666666667 17.3333333333 -8 28 20 c 0
 36 41.3333333333 37.6666666667 63 33 85 c 2
 28 112 l 2
 20.6666666667 152.666666667 47.6666666667 173.333333333 109 174 c 0
 167.666666667 174.666666667 198.666666667 158 202 124 c 2
EndSplineSet
EndChar

StartChar: Virgula
Encoding: 149 63133 21
Width: 584
Flags: HW
LayerCount: 2
Fore
SplineSet
-16 102 m 1
 -15.3333333333 130.666666667 -0.666666666667 148.666666667 28 156 c 0
 41.3333333333 160 54.6666666667 162 68 162 c 0
 116.666666667 161.333333333 143.666666667 137.333333333 149 90 c 0
 149.666666667 84.6666666667 146 72 138 52 c 0
 120 10 94.6666666667 -18 62 -32 c 0
 55.3333333333 -34.6666666667 46.6666666667 -36 36 -36 c 2
 30 -36 l 2
 14.6666666667 -36 2.33333333333 -32.3333333333 -7 -25 c 0
 -18.3333333333 -15.6666666667 -24 -7.33333333333 -24 0 c 1
 -24 0 l 1
 -24 0 l 1
 -24 0 l 1
 -14 -4 -14 -4 -4 -8 c 0
 -1.33333333333 -9.33333333333 1.33333333333 -10 4 -10 c 2
 14 -10 l 2
 26 -10 39.3333333333 -2.66666666667 54 12 c 2
 56 14 l 1
 78.6666666667 58.6666666667 54.6666666667 88 -16 102 c 1
EndSplineSet
EndChar

StartChar: uniF69E
Encoding: 150 63134 22
Width: 19
Flags: HW
LayerCount: 2
Fore
SplineSet
75 1006 m 1
 89 996.666666667 101 981.333333333 111 960 c 0
 120.333333333 938.666666667 127 916.666666667 131 894 c 0
 135.666666667 862.666666667 137.333333333 839 136 823 c 0
 132 767 125.666666667 729.666666667 117 711 c 0
 98.3333333333 677.666666667 84.3333333333 660.333333333 75 659 c 2
 75 659 75 659 74 659 c 1
 74 659 l 1
 73 659 l 1
 73 658 l 1
 72 658 l 1
 72 659 72 659 72 658 c 1
 71.3333333333 658.666666667 71 658.666666667 71 658 c 1
 71 659 71 659 71 658 c 1
 70.3333333333 658.666666667 69.6666666667 659 69 659 c 1
 69.6666666667 659.666666667 69.6666666667 659.666666667 69 659 c 1
 69 660 l 1
 69 660 69 660 69 660 c 1
 67.6666666667 660 67 660.333333333 67 661 c 2
 67 662 l 1
 67 662 l 1
 67 663 l 1
 67 663 l 1
 67 664 l 1
 67 664 67 664 67 664 c 1
 67 665 67 665 67 665 c 1
 67 665 l 1
 67 666 l 1
 67 666 67 666 68 666 c 1
 68 667 l 1
 68 667 l 1
 76 677 84 695.833333333 92 723.5 c 128
 100 751.166666667 104.333333333 784.333333333 105 823 c 0
 104.333333333 868.333333333 100.666666667 904.333333333 94 931 c 0
 84.6666666667 968.333333333 76 991 68 999 c 1
 67 999 l 1
 67 1000 l 1
 67 1000 67 1000 67 1000 c 257
 67 1000 67 1000 67 1001 c 2
 67 1001 67 1001 67 1002 c 1
 67 1002 67 1002 67 1002 c 1
 67 1003 l 1
 67 1003 67 1003 67 1003 c 257
 67 1003 67 1003 67 1004 c 1
 68 1004 68 1004 68 1004 c 1
 68 1005 l 1
 69 1005 l 1
 69 1005 69 1005 69 1006 c 1
 69 1006 l 1
 70 1006 l 1
 70 1006 70 1006 71 1007 c 1
 71 1006.33333333 71.3333333333 1006.33333333 72 1007 c 1
 72 1006.33333333 72.3333333333 1006.33333333 73 1007 c 1
 73 1006 73 1006 73 1007 c 1
 74 1006 74 1006 74 1006 c 257
 74 1006 74 1006 74 1006 c 1
 75 1006 75 1006 75 1006 c 1
-44 665 m 1
 -44 664 -44 664 -44 664 c 129
 -44 664 -44 664 -44 663.5 c 128
 -44 663 -44 663 -44 663 c 257
 -44 663 -44 663 -44 663 c 257
 -44 663 -44 663 -44 662.5 c 128
 -44 662 -44 662 -44 662 c 2
 -44 661 -44 661 -44 661 c 1
 -44.6666666667 661 -45.3333333333 660.666666667 -46 660 c 1
 -46 660 -46 660 -46 660 c 1
 -46 659 l 1
 -46 659 -46 659 -46 659 c 1
 -46.6666666667 659 -47.3333333333 658.666666667 -48 658 c 2
 -48 658 -48 658 -48.5 658 c 128
 -49 658 -49 658 -49 658 c 257
 -49 658 -49 658 -49 658 c 1
 -50 658 l 1
 -50 658 -50 658 -50.5 658.5 c 128
 -51 659 -51 659 -51 659 c 257
 -51 659 -51 659 -51 659 c 1
 -52 659 -52 659 -52 659 c 1
 -68.6666666667 669 -82.6666666667 686.333333333 -94 711 c 0
 -106.666666667 741 -113 778.333333333 -113 823 c 0
 -113 847 -111.166666667 870.5 -107.5 893.5 c 128
 -103.833333333 916.5 -97.1666666667 938.666666667 -87.5 960 c 128
 -77.8333333333 981.333333333 -66 996.666666667 -52 1006 c 1
 -52 1006 -52 1006 -51 1006 c 1
 -51 1006 -51 1006 -51 1006.5 c 128
 -51 1006.83333333 -50.8333333333 1007 -50.5 1007 c 128
 -50 1007 -50 1007 -49.5 1007 c 128
 -49 1007 -49 1007 -49 1007 c 257
 -49 1007 -49 1007 -48.5 1007 c 128
 -48 1007 -48 1007 -48 1007 c 2
 -47.3333333333 1007 -47 1006.66666667 -47 1006 c 1
 -47 1006 -47 1006 -47 1006 c 1
 -46 1006 -46 1006 -46 1006 c 1
 -46 1006 l 1
 -46 1005 -46 1005 -46 1005 c 1
 -45.3333333333 1005 -45 1004.83333333 -45 1004.5 c 128
 -45 1004 -45 1004 -45 1004 c 257
 -45 1004 -45 1004 -44 1004 c 1
 -44 1004 -44 1004 -44 1003.5 c 128
 -44 1003 -44 1003 -44 1003 c 2
 -44 1002 -44 1002 -44 1002 c 257
 -44 1002 -44 1002 -44 1001.5 c 128
 -44 1001 -44 1001 -44 1001 c 129
 -44 1001 -44 1001 -44 1000 c 1
 -44 1000 -44 1000 -44 1000 c 257
 -44 1000 -44 1000 -44 999 c 1
 -44 999 -44 999 -45 999 c 0
 -55.6666666667 980.333333333 -64.5 957.666666667 -71.5 931 c 128
 -78.5 904.333333333 -82 868.333333333 -82 823 c 0
 -82 802.333333333 -80.5 782.5 -77.5 763.5 c 128
 -74.5 744.5 -70.8333333333 728.5 -66.5 715.5 c 128
 -62.1666666667 702.5 -58.1666666667 692 -54.5 684 c 128
 -50.8333333333 676 -47.6666666667 670.333333333 -45 667 c 1
 -45 667 -45 667 -45 666 c 1
 -44 666 -44 666 -44 666 c 1
 -44 665 l 1
 -44 665 -44 665 -44 665 c 1
0 998 m 1
 19 998 l 1
 19 679 l 1
 15.6666666667 679 13 679.333333333 11 680 c 128
 9 680.666666667 7.16666666667 681.333333333 5.5 682 c 128
 3.83333333333 682.666666667 2.66666666667 683.333333333 2 684 c 128
 1 685 1 685 0 686 c 2
 0 998 l 1
EndSplineSet
EndChar

StartChar: OriscusVirga
Encoding: 151 63128 23
Width: 148
Flags: HW
LayerCount: 2
Fore
SplineSet
0 14 m 2
 0 153 l 1
 0 153 0 153 4 146 c 0
 5 145 5 145 7 143 c 128
 8.33333333333 141.666666667 9.5 140.666666667 10.5 140 c 128
 11.5 139.333333333 13 138.5 15 137.5 c 128
 17 136.5 19 135.833333333 21 135.5 c 128
 23 135.166666667 25.5 134.833333333 28.5 134.5 c 128
 31.5 134.166666667 35.1666666667 134 39.5 134 c 128
 43.8333333333 134 50.1666666667 135.666666667 58.5 139 c 128
 66.8333333333 142.333333333 74.8333333333 146 82.5 150 c 128
 90.1666666667 154 98.3333333333 157.666666667 107 161 c 128
 115.666666667 164.333333333 122.333333333 166 127 166 c 0
 139.666666667 166 149.333333333 162.166666667 156 154.5 c 128
 162.666666667 146.833333333 166 133.666666667 166 115 c 2
 166 -327 l 1
 148 -327 l 1
 148 -9 l 2
 146 -7.66666666667 144 -6.66666666667 142 -6 c 128
 140 -5.33333333333 137.666666667 -4.66666666667 135 -4 c 128
 132.333333333 -3.33333333333 129.666666667 -3 127 -3 c 0
 120.333333333 -3 101.333333333 -11 70 -27 c 0
 55.3333333333 -33.6666666667 45 -37 39 -37 c 0
 13 -37 0 -20 0 14 c 2
EndSplineSet
EndChar

StartChar: DiamanteLiquescente
Encoding: 152 63102 24
Width: 172
Flags: HW
LayerCount: 2
Fore
SplineSet
37 39 m 0
 57.6666666667 14.3333333333 66.6666666667 -8.33333333333 64 -29 c 0
 62.6666666667 -39.6666666667 61 -48.6666666667 59 -56 c 0
 56.3333333333 -66.6666666667 50 -75.3333333333 40 -82 c 2
 37 -84 l 2
 35.6666666667 -84.6666666667 35 -85.3333333333 35 -86 c 256
 35 -86.6666666667 36 -87 38 -87 c 128
 40 -87 42.6666666667 -86.6666666667 46 -86 c 0
 58.6666666667 -83.3333333333 74.6666666667 -73.3333333333 94 -56 c 0
 104.666666667 -46.6666666667 116 -28.3333333333 128 -1 c 128
 140 26.3333333333 144 51.6666666667 140 75 c 0
 137.333333333 91 127.833333333 108.166666667 111.5 126.5 c 128
 95.1666666667 144.833333333 82.6666666667 157.333333333 74 164 c 128
 65.3333333333 170.666666667 58 176 52 180 c 1
 -19 69 l 1
 16 57 l 1
 24.6666666667 51 31.6666666667 45 37 39 c 0
EndSplineSet
EndChar

StartChar: StrophaSecond
Encoding: 153 63138 25
Width: 167
Flags: HW
LayerCount: 2
Fore
SplineSet
35 -129 m 0
 41 -119.666666667 47.3333333333 -105.666666667 54 -87 c 0
 64 -48.3333333333 57.3333333333 -13.3333333333 34 18 c 0
 26.6666666667 27.3333333333 17.3333333333 36.8333333333 6 46.5 c 128
 -5.33333333333 56.1666666667 -15 63.3333333333 -23 68 c 2
 -35 75 l 1
 47 200 l 1
 53 194.666666667 60.6666666667 187.666666667 70 179 c 128
 79.3333333333 170.333333333 92 154.666666667 108 132 c 128
 124 109.333333333 133 89 135 71 c 0
 141 7 127 -47.6666666667 93 -93 c 0
 82.3333333333 -107 65 -120.333333333 41 -133 c 0
 37.6666666667 -135 35.3333333333 -135.333333333 34 -134 c 0
 33.3333333333 -133.333333333 33.6666666667 -131.666666667 35 -129 c 0
EndSplineSet
EndChar

StartChar: StrophaThird
Encoding: 154 63139 26
Width: 167
Flags: HW
LayerCount: 2
Fore
SplineSet
-66 -253 m 0
 -48 -239 -31.6666666667 -224.666666667 -17 -210 c 0
 14.3333333333 -177.333333333 30.6666666667 -157.333333333 32 -150 c 1
 32 -150 32 -150 32 -150 c 1
 56 -85.3333333333 56.3333333333 -32.3333333333 33 9 c 0
 27 19.6666666667 18.3333333333 30.5 7 41.5 c 128
 -4.33333333333 52.5 -14 60.8333333333 -22 66.5 c 128
 -30 72.1666666667 -34.3333333333 75 -35 75 c 1
 47 200 l 1
 61 187.333333333 68.6666666667 180.333333333 70 179 c 0
 80 161 92 142.333333333 106 123 c 0
 122 101 131.666666667 83.3333333333 135 70 c 0
 151 4 143.666666667 -54.6666666667 113 -106 c 1
 113 -106 l 1
 93 -143.333333333 63.6666666667 -174.666666667 25 -200 c 0
 -60.3333333333 -254.666666667 -90.6666666667 -272.333333333 -66 -253 c 0
EndSplineSet
EndChar

StartChar: PRLFirst
Encoding: 155 63141 27
Width: 188
Flags: HW
LayerCount: 2
Fore
SplineSet
105 196 m 1
 192 83 l 1
 192 65.6666666667 186.666666667 44.6666666667 176 20 c 0
 158 -23.3333333333 133.333333333 -51 102 -63 c 0
 90.6666666667 -67 82 -69 76 -69 c 2
 70 -69 l 2
 56 -68.3333333333 44.3333333333 -64.3333333333 35 -57 c 0
 23 -47 17 -32.3333333333 17 -13 c 1
 25 -13 l 1
 27 -15 l 1
 27 -29 30.3333333333 -37 37 -39 c 0
 44 -41 44 -41 44 -41 c 1
 54 -41 l 2
 74 -41 87.3333333333 -34.3333333333 94 -21 c 2
 96 -17 l 1
 95.3333333333 6.33333333333 72.3333333333 31.3333333333 27 58 c 1
 17 61 l 1
 105 196 l 1
EndSplineSet
EndChar

StartChar: PRLSecond
Encoding: 156 63142 28
Width: 188
Flags: HW
LayerCount: 2
Fore
SplineSet
105 196 m 1
 192 83 l 1
 192 27.6666666667 185.333333333 -11.6666666667 172 -35 c 0
 152 -70.3333333333 128.666666667 -96.3333333333 102 -113 c 0
 95.3333333333 -117 86.6666666667 -119 76 -119 c 2
 70 -119 l 2
 56 -119 44.3333333333 -115 35 -107 c 0
 23 -97 17 -82.3333333333 17 -63 c 1
 25 -63 l 1
 27 -65 l 1
 27 -79 30.3333333333 -87 37 -89 c 0
 44 -91 44 -91 44 -91 c 1
 54 -91 l 2
 74 -91 87.3333333333 -84.3333333333 94 -71 c 2
 96 -67 l 1
 95.3333333333 -10.3333333333 72.3333333333 31.3333333333 27 58 c 1
 17 61 l 1
 105 196 l 1
EndSplineSet
EndChar

StartChar: PRLThird
Encoding: 157 63143 29
Width: 188
Flags: HW
LayerCount: 2
Fore
SplineSet
105 196 m 1
 192 83 l 1
 197.333333333 24.3333333333 178.666666667 -52.3333333333 136 -147 c 1
 136 -147 136 -147 136 -147 c 1
 98.6666666667 -213 50.3333333333 -254.333333333 -9 -271 c 0
 -9.66666666667 -271.666666667 -11.3333333333 -271.333333333 -14 -270 c 2
 -19 -268 l 2
 -32.3333333333 -263.333333333 -42.3333333333 -255.666666667 -49 -245 c 0
 -53 -237.666666667 -55 -229.666666667 -55 -221 c 0
 -55 -213.666666667 -53.3333333333 -206 -50 -198 c 1
 -43 -201 l 1
 -42 -204 l 1
 -44 -209.333333333 -45 -214 -45 -218 c 0
 -45 -223.333333333 -43.6666666667 -227 -41 -229 c 0
 -34 -234 -34 -234 -34 -234 c 1
 -25 -237 l 2
 -15.6666666667 -240.333333333 -7.33333333333 -242 0 -242 c 0
 9.33333333333 -242 15.6666666667 -238.666666667 19 -232 c 2
 59 -155 l 1
 97 -45 86.3333333333 26 27 58 c 1
 17 61 l 1
 105 196 l 1
EndSplineSet
EndChar
